<svg width="256" height="256" viewBox="0 0 256 256" fill="none" xmlns="http://www.w3.org/2000/svg">
<path fill-rule="evenodd" clip-rule="evenodd" d="M128 256C198.692 256 256 198.692 256 128C256 57.3076 198.692 0 128 0C57.3076 0 0 57.3076 0 128C0 198.692 57.3076 256 128 256ZM127 119C149.644 119 168 100.644 168 78C168 55.3563 149.644 37 127 37C104.356 37 86 55.3563 86 78C86 100.644 104.356 119 127 119ZM127.212 157C127.142 157 127.071 157 127 157C76.7673 157 31.3457 175.481 36.9914 184.986C36.9898 184.989 36.9911 184.993 36.9953 185C55.9598 214.465 89.1959 234 127.028 234C164.858 234 198.032 214.467 216.997 185.004C216.998 185.003 216.999 185.001 217 185C223.924 174.614 177.389 157.05 127.212 157Z" fill="white"/>
</svg>
