<svg width="256" height="256" viewBox="0 0 256 256" fill="none" xmlns="http://www.w3.org/2000/svg">
<path fill-rule="evenodd" clip-rule="evenodd" d="M39.0938 237.485C42.3081 248.196 52.2428 256 64.0002 256H230C244.36 256 256 244.359 256 230V64C256 52.2425 248.196 42.3078 237.485 39.0935C237.824 41.3463 238 43.6526 238 46V192C238 217.405 217.405 238 192 238H46C43.6527 238 41.3465 237.824 39.0938 237.485Z" fill="white"/>
<path fill-rule="evenodd" clip-rule="evenodd" d="M0 26C0 11.6406 11.6406 0 26 0H192C206.359 0 218 11.6406 218 26V192C218 206.359 206.359 218 192 218H26C11.6406 218 0 206.359 0 192V26ZM38.5147 101.515C43.201 96.8284 50.799 96.8284 55.4853 101.515L82.751 128.78L161.368 50.1638C166.054 45.4775 173.652 45.4775 178.338 50.1638C183.024 54.8501 183.024 62.4481 178.338 67.1344L93.4853 151.987C92.5823 152.89 91.5712 153.619 90.4937 154.174C85.7865 158.524 78.4424 158.413 73.8701 153.841L38.5147 118.485C33.8284 113.799 33.8284 106.201 38.5147 101.515Z" fill="white"/>
</svg>
