<svg width="10" height="10" viewBox="0 0 10 10" fill="none" xmlns="http://www.w3.org/2000/svg">
<circle cx="5" cy="5" r="5" fill="#426BFF"/>
<path d="M2.85819 8V2.4H4.95419C5.48752 2.4 5.96219 2.512 6.37819 2.736C6.79419 2.95733 7.12085 3.27733 7.35819 3.696C7.59552 4.112 7.71419 4.61333 7.71419 5.2C7.71419 5.78667 7.59552 6.28933 7.35819 6.708C7.12085 7.124 6.79419 7.444 6.37819 7.668C5.96219 7.88933 5.48752 8 4.95419 8H2.85819ZM3.88219 7.088H4.95419C5.31685 7.088 5.61952 7.012 5.86219 6.86C6.10485 6.708 6.28752 6.49067 6.41019 6.208C6.53285 5.92533 6.59419 5.58933 6.59419 5.2C6.59419 4.81067 6.53285 4.47467 6.41019 4.192C6.28752 3.90933 6.10485 3.692 5.86219 3.54C5.61952 3.388 5.31685 3.312 4.95419 3.312H3.88219V7.088Z" fill="white"/>
</svg>
