<svg width="480" height="480" viewBox="0 0 480 480" fill="none" xmlns="http://www.w3.org/2000/svg">
<circle cx="240" cy="240" r="240" fill="#FFBB0C" fill-opacity="0.23"/>
<path d="M120.371 364.914C116.451 366.185 112.762 362.437 114.097 358.538L122.687 333.443C123.886 329.943 128.338 328.911 130.954 331.527L147.796 348.37C150.437 351.01 149.356 355.509 145.804 356.661L120.371 364.914Z" fill="#FFBB0C"/>
<path d="M321.077 131.674L349.361 159.958L166.928 342.392C163.023 346.297 156.691 346.297 152.786 342.392L138.644 328.25C134.738 324.344 134.738 318.013 138.644 314.107L321.077 131.674Z" fill="#FFBB0C"/>
<path d="M347.512 105.071C351.417 101.166 357.749 101.166 361.654 105.071L375.796 119.213C379.701 123.118 379.701 129.45 375.796 133.355L354.583 154.569L326.299 126.284L347.512 105.071Z" fill="#FFBB0C"/>
</svg>
