<svg width="256" height="256" viewBox="0 0 256 256" fill="none" xmlns="http://www.w3.org/2000/svg">
<path fill-rule="evenodd" clip-rule="evenodd" d="M88.2988 27.2069L88.3058 27.2785C88.2858 27.1084 88.2859 27.0781 88.2988 27.2069ZM80.3014 51C78.6008 51.9979 76.3481 52.0957 73.7397 51.6096C70.4413 50.9949 66.5742 49.4464 62.5363 47.603C60.6176 46.727 58.6603 45.7845 56.7071 44.844C46.8243 40.085 37.0454 35.376 32.897 39.5962C17.1518 55.6137 5.64146 75.5963 0.112728 97.8465C-1.10657 102.754 7.77043 107.771 16.8103 112.88L16.8104 112.88C20.5208 114.977 24.2585 117.09 27.337 119.217C29.7247 120.867 31.7158 122.525 32.9896 124.191C33.9568 125.456 34.5105 126.726 34.5105 128C34.5105 130.059 33.3596 132.106 31.4834 134.14C30.0076 135.741 28.083 137.334 25.9167 138.918C23.2411 140.875 20.1968 142.819 17.1737 144.75L17.1733 144.751C8.23296 150.461 -0.522054 156.052 0.993977 161.5C7.06612 183.32 18.9264 202.828 34.8747 218.373C38.7129 222.114 47.9016 217.477 57.1702 212.799L57.1707 212.798C59.8659 211.438 62.568 210.074 65.1471 208.912C67.9461 207.651 70.6004 206.627 72.9443 206.103C75.4907 205.534 77.6709 205.554 79.2724 206.5C83.9299 209.251 84.2731 218.906 84.6152 228.532C84.9838 238.899 85.3511 249.232 91.1059 250.868C102.857 254.208 115.288 256 128.15 256C140.264 256 151.996 254.411 163.137 251.435C168.954 249.881 169.422 239.497 169.89 229.077C170.326 219.403 170.762 209.697 175.485 207C178.015 205.555 181.803 206.169 186.163 207.73C188.59 208.599 191.194 209.761 193.856 211.025C195.312 211.717 196.786 212.439 198.258 213.16C207.788 217.828 217.228 222.453 221.295 218.5C237.514 202.735 249.522 182.878 255.537 160.66C256.975 155.348 248.189 149.901 239.222 144.343L239.222 144.343C236.677 142.765 234.117 141.178 231.773 139.583C230.015 138.387 228.378 137.186 226.959 135.98C223.852 133.341 221.79 130.68 221.79 128C221.79 126.768 222.264 125.54 223.1 124.317C224.292 122.572 226.221 120.836 228.563 119.11C231.683 116.81 235.536 114.528 239.358 112.263L239.358 112.263C248.362 106.928 257.194 101.695 255.867 96.5844C250.192 74.7265 238.731 55.1054 223.16 39.3492C219.118 35.259 209.478 39.9801 199.741 44.749C197.064 46.0601 194.379 47.3749 191.802 48.5112C188.134 50.1281 184.682 51.3835 181.777 51.7526C179.705 52.0157 177.911 51.8283 176.514 51C171.563 48.0652 171.029 37.9953 170.497 27.9587C169.92 17.0712 169.345 6.22299 163.137 4.56473C151.996 1.58919 140.264 0 128.15 0C115.288 0 102.857 1.79161 91.1059 5.13203C85.4277 6.74617 85.2985 17.4629 85.1689 28.2099C85.0481 38.2347 84.9269 48.2858 80.3014 51ZM87.7129 230.232C87.7131 230.234 87.7156 230.212 87.72 230.163L87.7267 230.086C87.7168 230.18 87.7126 230.229 87.7129 230.232ZM166.776 230.424C166.776 230.412 166.772 230.364 166.764 230.283L166.77 230.36C166.775 230.415 166.777 230.436 166.776 230.424ZM167.267 24.0519L167.269 24.0142C167.28 23.8209 167.283 23.8435 167.267 24.0519ZM128.15 174C154.292 174 175.485 153.405 175.485 128C175.485 102.595 154.292 82 128.15 82C102.008 82 80.8159 102.595 80.8159 128C80.8159 153.405 102.008 174 128.15 174Z" fill="white"/>
</svg>
