<svg width="256" height="256" viewBox="0 0 256 256" fill="none" xmlns="http://www.w3.org/2000/svg">
<path fill-rule="evenodd" clip-rule="evenodd" d="M128 256C198.692 256 256 198.692 256 128C256 57.3076 198.692 0 128 0C57.3076 0 0 57.3076 0 128C0 198.692 57.3076 256 128 256ZM74 117C68.4771 117 64 121.477 64 127C64 132.523 68.4771 137 74 137H158.113L129.929 165.184C126.024 169.089 126.024 175.421 129.929 179.326C133.834 183.231 140.166 183.231 144.071 179.326L189.326 134.071C190.894 132.503 191.832 130.545 192.141 128.509C192.889 125.262 191.998 121.714 189.468 119.184L144.213 73.9289C140.308 70.0237 133.976 70.0237 130.071 73.9289C126.166 77.8342 126.166 84.1658 130.071 88.0711L159 117H74Z" fill="#3EA6FF"/>
</svg>
