<svg width="256" height="256" viewBox="0 0 256 256" fill="none" xmlns="http://www.w3.org/2000/svg">
<path fill-rule="evenodd" clip-rule="evenodd" d="M256 128C256 198.692 198.692 256 128 256C57.3075 256 0 198.692 0 128C0 57.3075 57.3075 0 128 0C198.692 0 256 57.3075 256 128ZM145 84C145 93.9411 136.941 102 127 102C117.059 102 109 93.9411 109 84C109 74.0589 117.059 66 127 66C136.941 66 145 74.0589 145 84ZM115 184C115 190.627 120.373 196 127 196C133.627 196 139 190.627 139 184V132C139 125.373 133.627 120 127 120C120.373 120 115 125.373 115 132V184Z" fill="white"/>
<path fill-rule="evenodd" clip-rule="evenodd" d="M256 128C256 198.692 198.692 256 128 256C57.3075 256 0 198.692 0 128C0 57.3075 57.3075 0 128 0C198.692 0 256 57.3075 256 128ZM145 84C145 93.9411 136.941 102 127 102C117.059 102 109 93.9411 109 84C109 74.0589 117.059 66 127 66C136.941 66 145 74.0589 145 84ZM115 184C115 190.627 120.373 196 127 196C133.627 196 139 190.627 139 184V132C139 125.373 133.627 120 127 120C120.373 120 115 125.373 115 132V184Z" fill="white"/>
</svg>
