<svg width="192" height="256" viewBox="0 0 192 256" fill="none" xmlns="http://www.w3.org/2000/svg">
<path d="M-0.00292969 125.856C-0.00292969 117.372 6.87418 110.495 15.3575 110.495H176.637C185.12 110.495 191.997 117.372 191.997 125.856V248.317C191.997 252.558 188.559 255.997 184.317 255.997H7.6773C3.43563 255.997 -0.00292969 252.558 -0.00292969 248.317V125.856Z" fill="#65B8FF"/>
<path fill-rule="evenodd" clip-rule="evenodd" d="M158.241 121.745L158.598 122.842L52.6969 157.152L30.2139 88.1566C20.6897 58.929 36.6756 27.5548 65.9194 18.0805C95.1631 8.60612 126.591 24.6193 136.115 53.8469L146.766 86.5315C149.569 87.8839 153.107 88.1427 155.714 87.298C158.079 86.5318 160.21 84.2842 161.509 82.1967L150.728 49.1127C138.575 11.8192 98.4744 -8.61312 61.1602 3.47587C23.8461 15.5649 3.44863 55.5973 15.6012 92.8908L38.0842 161.886L42.8433 176.49L57.456 171.756L163.357 137.446L177.97 132.712L173.211 118.108L173.044 117.596C172.079 120.321 170.269 122.231 167.4 123.16C163.896 124.296 160.902 123.723 158.241 121.745Z" fill="#65B8FF"/>
</svg>
