<svg width="256" height="240" viewBox="0 0 256 240" fill="none" xmlns="http://www.w3.org/2000/svg">
<ellipse cx="93.6897" cy="63.9683" rx="64.6717" ry="63.9683" fill="white"/>
<path fill-rule="evenodd" clip-rule="evenodd" d="M123.298 144.937C119.77 144.928 116.007 144.928 111.993 144.928L22.8651 144.928L22.864 144.928C21.7607 144.928 20.1064 144.928 18.4521 145.428C17.9287 145.586 17.2815 145.856 16.2455 146.375C-0.119255 154.567 -0.0491529 171.575 0.00664779 185.113C0.00984966 185.89 0.0130045 186.655 0.0130045 187.407C0.0130045 202.828 19.7745 239.881 98.8193 239.881C108.691 239.881 117.384 239.025 125.022 237.473C115.515 223.674 110.021 207.371 110.021 189.906C110.021 173.525 114.854 158.167 123.298 144.937Z" fill="white"/>
<path fill-rule="evenodd" clip-rule="evenodd" d="M64.3067 144.937C67.8357 144.928 71.5997 144.928 75.6142 144.928H120.12C126.392 144.928 128.195 144.928 131.223 145.928C134.756 147.094 136.748 147.908 137.784 148.426C148.043 153.562 151.637 162.143 152.863 171.165L142.759 171.165H142.758C141.91 171.165 140.637 171.165 139.364 171.59C138.961 171.724 138.463 171.954 137.666 172.395C125.075 179.358 125.129 193.815 125.172 205.322C125.175 205.983 125.177 206.633 125.177 207.272C125.177 213.383 128.482 223.491 138.172 232.54C128.424 237.593 113.005 240.654 88.7882 239.881C79.0865 239.571 70.5236 238.531 62.981 236.89C72.2438 223.216 77.5847 207.126 77.5847 189.906C77.5847 173.525 72.7515 158.167 64.3067 144.937Z" fill="white"/>
<ellipse cx="198.083" cy="131.402" rx="39.8809" ry="39.4471" fill="white"/>
<path fill-rule="evenodd" clip-rule="evenodd" d="M216.342 181.332C214.166 181.327 211.846 181.327 209.371 181.327L154.408 181.327L154.408 181.327C153.727 181.327 152.707 181.327 151.687 181.635C151.364 181.732 150.965 181.899 150.326 182.219C140.235 187.271 140.278 197.759 140.312 206.108C140.314 206.587 140.316 207.059 140.316 207.522C140.316 217.032 152.502 239.881 201.247 239.881C207.335 239.881 212.695 239.353 217.405 238.396C211.542 229.887 208.154 219.833 208.154 209.063C208.154 198.961 211.135 189.49 216.342 181.332Z" fill="white"/>
<path fill-rule="evenodd" clip-rule="evenodd" d="M179.964 181.332C182.14 181.327 184.461 181.327 186.937 181.327L241.9 181.327L241.9 181.327C242.581 181.327 243.601 181.327 244.621 181.635C244.944 181.732 245.343 181.899 245.982 182.219C256.074 187.271 256.03 197.759 255.996 206.108C255.994 206.587 255.992 207.059 255.992 207.522C255.992 217.032 243.806 239.881 195.061 239.881C188.972 239.881 183.612 239.353 178.901 238.396C184.764 229.887 188.152 219.833 188.152 209.063C188.152 198.961 185.172 189.49 179.964 181.332Z" fill="white"/>
</svg>
