<svg width="256" height="256" viewBox="0 0 256 256" fill="none" xmlns="http://www.w3.org/2000/svg">
<path d="M194.069 29.6394L226.473 62.0035L65.7055 222.576C62.2618 226.015 56.6786 226.015 53.235 222.576L33.302 202.667C29.8583 199.227 29.8583 193.651 33.3019 190.211L194.069 29.6394Z" fill="white"/>
<path d="M207.395 16.1821C216.343 7.24495 230.85 7.24496 239.798 16.1821V16.1821C248.746 25.1192 248.746 39.6091 239.798 48.5462L231.074 57.2596L198.671 24.8955L207.395 16.1821Z" fill="white"/>
<path d="M25.5297 235.332C22.1686 236.295 19.0764 233.154 20.0971 229.814L31.1587 193.613C32.1299 190.435 36.1408 189.435 38.4933 191.785L64.1926 217.453C66.5682 219.826 65.5201 223.874 62.2907 224.8L25.5297 235.332Z" fill="white"/>
</svg>
