<svg width="256" height="256" viewBox="0 0 256 256" fill="none" xmlns="http://www.w3.org/2000/svg">
<path fill-rule="evenodd" clip-rule="evenodd" d="M169.482 138.033L169.485 138.07C169.475 137.983 169.475 137.967 169.482 138.033ZM165.308 150.297C164.422 150.816 163.247 150.863 161.885 150.605C160.175 150.28 158.171 149.474 156.08 148.519C155.108 148.075 154.118 147.598 153.129 147.123C148.028 144.669 142.98 142.241 140.839 144.417C132.711 152.676 126.77 162.979 123.916 174.452C123.287 176.982 127.869 179.569 132.535 182.204L132.535 182.204C134.45 183.285 136.378 184.374 137.967 185.47C139.195 186.317 140.22 187.169 140.878 188.025C141.382 188.681 141.672 189.339 141.672 190C141.672 191.066 141.072 192.127 140.096 193.181C139.335 194.002 138.346 194.819 137.233 195.632C135.852 196.64 134.282 197.642 132.722 198.637C128.108 201.581 123.588 204.464 124.371 207.273C127.505 218.524 133.627 228.583 141.86 236.599C143.841 238.528 148.584 236.136 153.368 233.724L153.368 233.724C154.74 233.033 156.115 232.339 157.429 231.746C158.879 231.091 160.255 230.557 161.472 230.281C162.803 229.978 163.942 229.984 164.777 230.477C167.181 231.895 167.358 236.873 167.535 241.837C167.725 247.182 167.914 252.51 170.885 253.354C176.95 255.076 183.367 256 190.006 256C196.259 256 202.315 255.181 208.066 253.646C211.069 252.845 211.31 247.491 211.552 242.118C211.776 237.129 212.002 232.125 214.439 230.734C215.756 229.983 217.733 230.311 220.006 231.13C221.261 231.583 222.607 232.185 223.983 232.839C224.715 233.186 225.455 233.549 226.195 233.911C231.114 236.318 235.987 238.702 238.086 236.664C246.458 228.535 252.656 218.297 255.761 206.84C256.503 204.101 251.968 201.293 247.34 198.427L247.339 198.427C246.027 197.614 244.708 196.797 243.499 195.976C242.599 195.364 241.761 194.751 241.032 194.134C239.416 192.767 238.341 191.389 238.341 190C238.341 189.361 238.589 188.724 239.025 188.09C239.641 187.194 240.634 186.302 241.839 185.415C243.449 184.23 245.437 183.053 247.41 181.886C252.057 179.135 256.616 176.437 255.931 173.801C253.002 162.531 247.086 152.414 239.048 144.289C236.962 142.18 231.986 144.615 226.96 147.074L226.96 147.074C225.597 147.74 224.231 148.409 222.918 148.989C221.017 149.829 219.227 150.483 217.719 150.681C216.636 150.823 215.699 150.728 214.971 150.297C212.415 148.784 212.14 143.591 211.865 138.416C211.567 132.802 211.27 127.209 208.066 126.354C202.315 124.819 196.259 124 190.006 124C183.367 124 176.95 124.924 170.885 126.646C167.954 127.478 167.887 133.004 167.82 138.546V138.546C167.758 143.715 167.695 148.897 165.308 150.297ZM169.179 242.708C169.179 242.713 169.18 242.702 169.183 242.674L169.186 242.634C169.182 242.678 169.179 242.703 169.179 242.708ZM209.899 242.806C209.898 242.796 209.896 242.773 209.893 242.736L209.896 242.776C209.898 242.807 209.899 242.817 209.899 242.806ZM210.152 136.405L210.153 136.385C210.159 136.286 210.16 136.297 210.152 136.405ZM190.007 213.719C203.501 213.719 214.44 203.1 214.44 190C214.44 176.9 203.501 166.281 190.007 166.281C176.513 166.281 165.574 176.9 165.574 190C165.574 203.1 176.513 213.719 190.007 213.719Z" fill="white"/>
<ellipse cx="85.8173" cy="64" rx="64.0688" ry="64" fill="white"/>
<path fill-rule="evenodd" clip-rule="evenodd" d="M122.15 145.009C118.655 145 114.926 145 110.949 145L22.6519 145L22.6509 145C21.5579 145 19.919 145 18.28 145.5C17.7616 145.658 17.1204 145.929 16.0941 146.447C-0.118143 154.644 -0.0486947 171.66 0.00658582 185.205C0.00975785 185.982 0.0128832 186.748 0.0128832 187.5C0.0128832 202.929 19.5901 240 97.8981 240C107.679 240 116.291 239.143 123.858 237.59C114.439 223.785 108.996 207.474 108.996 190C108.996 173.611 113.784 158.245 122.15 145.009Z" fill="white"/>
</svg>
