<svg width="10" height="10" viewBox="0 0 10 10" fill="none" xmlns="http://www.w3.org/2000/svg">
<circle cx="5" cy="5" r="5" fill="#6732FF"/>
<path d="M3.23319 8V2.4H5.22519C5.65452 2.4 6.01719 2.464 6.31319 2.592C6.60919 2.72 6.83319 2.91733 6.98519 3.184C7.13985 3.45067 7.21719 3.792 7.21719 4.208C7.21719 4.62933 7.14119 4.97733 6.98919 5.252C6.83719 5.524 6.61452 5.72667 6.32119 5.86C6.02785 5.99067 5.67052 6.056 5.24919 6.056H4.25719V8H3.23319ZM4.25719 5.2H5.12919C5.47852 5.2 5.73985 5.12133 5.91319 4.964C6.08919 4.80667 6.17719 4.56 6.17719 4.224C6.17719 3.888 6.08785 3.64267 5.90919 3.488C5.73319 3.33333 5.46519 3.256 5.10519 3.256H4.25719V5.2Z" fill="white"/>
</svg>
