<svg width="10" height="10" viewBox="0 0 10 10" fill="none" xmlns="http://www.w3.org/2000/svg">
<circle cx="5" cy="5" r="5" fill="#DB6900"/>
<path d="M3.11209 8V2.4H5.16009C5.54676 2.4 5.88409 2.46133 6.17209 2.584C6.46276 2.70667 6.68809 2.89333 6.84809 3.144C7.00809 3.39467 7.08809 3.712 7.08809 4.096C7.08809 4.50667 7.00009 4.83333 6.82409 5.076C6.65076 5.316 6.42143 5.50667 6.13609 5.648L7.40009 8H6.25609L5.17609 5.92C5.16809 5.92 5.16143 5.92 5.15609 5.92C5.15076 5.92 5.14409 5.92 5.13609 5.92H4.13609V8H3.11209ZM4.13609 5.064H4.88809C5.30943 5.064 5.60276 4.97867 5.76809 4.808C5.93343 4.63467 6.01609 4.416 6.01609 4.152C6.01609 3.872 5.93476 3.65333 5.77209 3.496C5.60943 3.336 5.32809 3.256 4.92809 3.256H4.13609V5.064Z" fill="white"/>
</svg>
