<svg width="256" height="256" viewBox="0 0 256 256" fill="none" xmlns="http://www.w3.org/2000/svg">
<path fill-rule="evenodd" clip-rule="evenodd" d="M26 0C11.6406 0 0 11.6406 0 26V192C0 206.359 11.6406 218 26 218H28.5005C22.5421 210.245 19 200.536 19 190V64C19 38.5949 39.5949 18 65 18H191C201.088 18 210.417 21.2472 218 26.7535V26C218 11.6406 206.359 0 192 0H26Z" fill="white"/>
<path fill-rule="evenodd" clip-rule="evenodd" d="M64 38C49.6406 38 38 49.6406 38 64V230C38 244.359 49.6406 256 64 256H230C244.359 256 256 244.359 256 230V64C256 49.6406 244.359 38 230 38H64ZM197 117C203.627 117 209 111.627 209 105C209 98.3726 203.627 93 197 93H97C90.3726 93 85 98.3726 85 105C85 111.627 90.3726 117 97 117H197ZM209 151C209 157.627 203.627 163 197 163H97C90.3726 163 85 157.627 85 151C85 144.373 90.3726 139 97 139H197C203.627 139 209 144.373 209 151ZM197 208C203.627 208 209 202.627 209 196C209 189.373 203.627 184 197 184H97C90.3726 184 85 189.373 85 196C85 202.627 90.3726 208 97 208H197Z" fill="white"/>
</svg>
