<svg width="256" height="256" viewBox="0 0 256 256" fill="none" xmlns="http://www.w3.org/2000/svg">
<path fill-rule="evenodd" clip-rule="evenodd" d="M256 128C256 198.692 198.692 256 128 256C57.3076 256 0 198.692 0 128C0 57.3076 57.3076 0 128 0C198.692 0 256 57.3076 256 128ZM58.5147 127.866C63.201 123.179 70.799 123.179 75.4853 127.866L102.751 155.131L181.368 76.5147C186.054 71.8284 193.652 71.8284 198.338 76.5147C203.024 81.201 203.024 88.799 198.338 93.4853L113.485 178.338C112.582 179.241 111.571 179.97 110.494 180.525C105.787 184.875 98.4424 184.764 93.8701 180.191L58.5147 144.836C53.8284 140.15 53.8284 132.552 58.5147 127.866Z" fill="#3EA6FF"/>
</svg>
