<svg width="222" height="256" viewBox="0 0 222 256" fill="none" xmlns="http://www.w3.org/2000/svg">
<path d="M107.952 8H115.048C129.961 8 135.314 8.12426 139.765 9.80435C143.988 11.3985 147.762 13.9899 150.768 17.3577C153.935 20.9072 155.975 25.8583 161.334 39.7748L163.346 45H59.6536L61.6659 39.7748C67.0252 25.8583 69.0651 20.9072 72.2324 17.3577C75.2376 13.9899 79.0125 11.3985 83.2353 9.80435C87.686 8.12426 93.0394 8 107.952 8Z" stroke="#DB3F42" stroke-width="16"/>
<path d="M8 45L214 45" stroke="#DB3F42" stroke-width="16" stroke-linecap="round"/>
<mask id="path-3-inside-1_430_54" fill="white">
<path fill-rule="evenodd" clip-rule="evenodd" d="M17.0471 98.7797C15.4851 77.3115 14.7042 66.5775 18.4013 58.3075C21.65 51.0404 27.2158 45.055 34.228 41.2875C42.2079 37 52.9703 37 74.4952 37H148.642C170.167 37 180.93 37 188.91 41.2875C195.922 45.055 201.488 51.0404 204.736 58.3075C208.433 66.5775 207.652 77.3116 206.09 98.7797L198.538 202.58V202.58C197.169 221.406 196.484 230.82 192.38 237.953C188.767 244.233 183.343 249.277 176.817 252.425C169.405 256 159.967 256 141.09 256H124.508H96.366H68.2239C62.3649 256 59.4354 256 56.9338 255.647C41.9976 253.54 29.9585 242.345 26.7735 227.601C26.2401 225.132 26.0275 222.21 25.6023 216.367L17.0471 98.7797ZM144.575 191C140.156 191 136.575 187.418 136.575 183V110C136.575 105.582 140.156 102 144.575 102C148.993 102 152.575 105.582 152.575 110V183C152.575 187.418 148.993 191 144.575 191ZM70.5635 183C70.5635 187.418 74.1452 191 78.5635 191C82.9818 191 86.5635 187.418 86.5635 183V110C86.5635 105.582 82.9818 102 78.5635 102C74.1452 102 70.5635 105.582 70.5635 110V183Z"/>
</mask>
<path fill-rule="evenodd" clip-rule="evenodd" d="M17.0471 98.7797C15.4851 77.3115 14.7042 66.5775 18.4013 58.3075C21.65 51.0404 27.2158 45.055 34.228 41.2875C42.2079 37 52.9703 37 74.4952 37H148.642C170.167 37 180.93 37 188.91 41.2875C195.922 45.055 201.488 51.0404 204.736 58.3075C208.433 66.5775 207.652 77.3116 206.09 98.7797L198.538 202.58V202.58C197.169 221.406 196.484 230.82 192.38 237.953C188.767 244.233 183.343 249.277 176.817 252.425C169.405 256 159.967 256 141.09 256H124.508H96.366H68.2239C62.3649 256 59.4354 256 56.9338 255.647C41.9976 253.54 29.9585 242.345 26.7735 227.601C26.2401 225.132 26.0275 222.21 25.6023 216.367L17.0471 98.7797ZM144.575 191C140.156 191 136.575 187.418 136.575 183V110C136.575 105.582 140.156 102 144.575 102C148.993 102 152.575 105.582 152.575 110V183C152.575 187.418 148.993 191 144.575 191ZM70.5635 183C70.5635 187.418 74.1452 191 78.5635 191C82.9818 191 86.5635 187.418 86.5635 183V110C86.5635 105.582 82.9818 102 78.5635 102C74.1452 102 70.5635 105.582 70.5635 110V183Z" fill="#DB3F42"/>
<path d="M18.4013 58.3075L3.79444 51.7775L18.4013 58.3075ZM17.0471 98.7797L1.08926 99.9407L17.0471 98.7797ZM34.228 41.2875L41.8007 55.3819L41.8007 55.3819L34.228 41.2875ZM188.91 41.2875L181.337 55.3819L181.337 55.3819L188.91 41.2875ZM204.736 58.3075L190.129 64.8375L190.129 64.8375L204.736 58.3075ZM206.09 98.7797L222.048 99.9408L222.048 99.9408L206.09 98.7797ZM198.538 202.58L182.58 201.419L182.538 201.998V202.58H198.538ZM198.538 202.58L214.496 203.741L214.538 203.161V202.58H198.538ZM192.38 237.953L178.511 229.974L178.511 229.974L192.38 237.953ZM176.817 252.425L183.768 266.836L183.768 266.836L176.817 252.425ZM56.9338 255.647L54.6992 271.49L54.6992 271.49L56.9338 255.647ZM26.7735 227.601L42.4128 224.223L42.4128 224.223L26.7735 227.601ZM25.6023 216.367L9.64451 217.528L25.6023 216.367ZM3.79444 51.7775C0.669503 58.7676 -0.164093 66.0115 -0.24697 73.4152C-0.327894 80.6445 0.328139 89.4795 1.08926 99.9407L33.0049 97.6186C32.2041 86.6118 31.6887 79.3456 31.751 73.7734C31.8114 68.3755 32.4359 66.1174 33.0081 64.8375L3.79444 51.7775ZM26.6553 27.193C16.5265 32.635 8.4871 41.2806 3.79444 51.7775L33.0081 64.8375C34.8129 60.8002 37.905 57.475 41.8007 55.3819L26.6553 27.193ZM74.4952 21C64.0063 21 55.147 20.9868 47.9426 21.5921C40.5645 22.212 33.4002 23.5691 26.6553 27.193L41.8007 55.3819C43.0357 54.7184 45.2426 53.9317 50.6218 53.4798C56.1748 53.0132 63.4592 53 74.4952 53V21ZM148.642 21H74.4952V53H148.642V21ZM196.482 27.193C189.737 23.5691 182.573 22.212 175.195 21.5921C167.991 20.9868 159.131 21 148.642 21V53C159.678 53 166.963 53.0132 172.516 53.4798C177.895 53.9317 180.102 54.7184 181.337 55.3819L196.482 27.193ZM219.343 51.7775C214.65 41.2806 206.611 32.635 196.482 27.193L181.337 55.3819C185.233 57.475 188.325 60.8002 190.129 64.8375L219.343 51.7775ZM222.048 99.9408C222.809 89.4795 223.465 80.6445 223.385 73.4152C223.302 66.0115 222.468 58.7676 219.343 51.7775L190.129 64.8375C190.702 66.1174 191.326 68.3755 191.387 73.7734C191.449 79.3456 190.933 86.6118 190.133 97.6187L222.048 99.9408ZM214.496 203.741L222.048 99.9408L190.133 97.6187L182.58 201.419L214.496 203.741ZM214.538 202.58V202.58H182.538V202.58H214.538ZM206.249 245.932C209.689 239.951 211.298 233.631 212.301 227.068C213.274 220.699 213.83 212.901 214.496 203.741L182.58 201.419C181.877 211.085 181.406 217.407 180.668 222.235C179.96 226.868 179.174 228.822 178.511 229.974L206.249 245.932ZM183.768 266.836C193.195 262.289 201.029 255.003 206.249 245.931L178.511 229.974C176.504 233.463 173.491 236.265 169.865 238.014L183.768 266.836ZM141.09 272C150.274 272 158.092 272.012 164.515 271.503C171.134 270.979 177.553 269.834 183.768 266.836L169.865 238.014C168.668 238.591 166.663 239.233 161.99 239.603C157.122 239.988 150.782 240 141.09 240V272ZM124.508 272H141.09V240H124.508V272ZM96.366 272H124.508V240H96.366V272ZM68.2239 272H96.366V240H68.2239V272ZM54.6992 271.49C58.5901 272.039 62.8967 272 68.2239 272V240C61.8332 240 60.2807 239.961 59.1685 239.804L54.6992 271.49ZM11.1343 230.98C15.7348 252.277 33.1246 268.447 54.6992 271.49L59.1685 239.804C50.8706 238.634 44.1822 232.414 42.4128 224.223L11.1343 230.98ZM9.64451 217.528C10.0311 222.841 10.3045 227.139 11.1343 230.98L42.4128 224.223C42.1756 223.125 42.0239 221.58 41.5601 215.206L9.64451 217.528ZM1.08926 99.9407L9.64451 217.528L41.5601 215.206L33.0049 97.6186L1.08926 99.9407ZM120.575 183C120.575 196.255 131.32 207 144.575 207V175C148.993 175 152.575 178.582 152.575 183H120.575ZM120.575 110V183H152.575V110H120.575ZM144.575 86C131.32 86 120.575 96.7452 120.575 110H152.575C152.575 114.418 148.993 118 144.575 118V86ZM168.575 110C168.575 96.7452 157.829 86 144.575 86V118C140.156 118 136.575 114.418 136.575 110H168.575ZM168.575 183V110H136.575V183H168.575ZM144.575 207C157.829 207 168.575 196.255 168.575 183H136.575C136.575 178.582 140.156 175 144.575 175V207ZM78.5635 175C82.9818 175 86.5635 178.582 86.5635 183H54.5635C54.5635 196.255 65.3086 207 78.5635 207V175ZM70.5635 183C70.5635 178.582 74.1452 175 78.5635 175V207C91.8183 207 102.563 196.255 102.563 183H70.5635ZM70.5635 110V183H102.563V110H70.5635ZM78.5635 118C74.1452 118 70.5635 114.418 70.5635 110H102.563C102.563 96.7452 91.8183 86 78.5635 86V118ZM86.5635 110C86.5635 114.418 82.9817 118 78.5635 118V86C65.3086 86 54.5635 96.7452 54.5635 110H86.5635ZM86.5635 183V110H54.5635V183H86.5635Z" fill="#DB3F42" mask="url(#path-3-inside-1_430_54)"/>
</svg>
