<svg width="480" height="480" viewBox="0 0 480 480" fill="none" xmlns="http://www.w3.org/2000/svg">
<circle cx="240" cy="240" r="240" fill="#770000" fill-opacity="0.31"/>
<path d="M327.112 210.199L319.559 313.999C318.865 323.539 318.373 330.23 317.576 335.443C316.794 340.559 315.803 343.604 314.446 345.963C311.635 350.848 307.417 354.771 302.341 357.219C299.89 358.402 296.781 359.17 291.621 359.578C286.365 359.994 279.655 360 270.09 360H253.508H225.366H197.224C191.099 360 188.858 359.98 187.051 359.726C175.434 358.087 166.07 349.38 163.593 337.912C163.208 336.129 163.026 333.895 162.581 327.786L154.026 210.199C153.235 199.329 152.685 191.67 152.752 185.684C152.818 179.785 153.494 176.28 154.705 173.573C157.232 167.92 161.56 163.265 167.014 160.335C169.627 158.931 173.073 158.002 178.952 157.508C184.918 157.007 192.596 157 203.495 157H277.642C288.542 157 296.22 157.007 302.186 157.508C308.065 158.002 311.511 158.931 314.123 160.335C319.577 163.265 323.906 167.92 326.433 173.573C327.643 176.28 328.32 179.785 328.386 185.684C328.453 191.67 327.902 199.329 327.112 210.199Z" stroke="#CA1417" stroke-width="16"/>
<path d="M236.952 120H244.048C258.961 120 264.314 120.124 268.765 121.804C272.988 123.398 276.762 125.99 279.768 129.358C282.935 132.907 284.975 137.858 290.334 151.775L292.346 157H188.654L190.666 151.775C196.025 137.858 198.065 132.907 201.232 129.358C204.238 125.99 208.012 123.398 212.235 121.804C216.686 120.124 222.039 120 236.952 120Z" stroke="#CA1417" stroke-width="16"/>
<path d="M137 157L343 157" stroke="#CA1417" stroke-width="16" stroke-linecap="round"/>
<path d="M273.575 295V222" stroke="#CA1417" stroke-width="16" stroke-linecap="round"/>
<path d="M207.563 295V222" stroke="#CA1417" stroke-width="16" stroke-linecap="round"/>
</svg>
