<svg width="256" height="256" viewBox="0 0 256 256" fill="none" xmlns="http://www.w3.org/2000/svg">
<circle cx="128" cy="128" r="128" fill="#3EA6FF" fill-opacity="0.25"/>
<circle cx="128" cy="128" r="127.5" stroke="#3EA6FF" stroke-opacity="0.64"/>
<path d="M68 126.659C68 121.357 72.2981 117.059 77.6 117.059H178.4C183.702 117.059 188 121.357 188 126.659V203.195C188 205.846 185.851 207.995 183.2 207.995H72.8C70.149 207.995 68 205.846 68 203.195V126.659Z" fill="#65B8FF"/>
<path fill-rule="evenodd" clip-rule="evenodd" d="M166.902 124.09L167.125 124.775L100.936 146.219L86.8853 103.099C80.9327 84.832 90.9239 65.223 109.201 59.3015C127.479 53.38 147.121 63.3883 153.074 81.6556L159.73 102.082C161.482 102.928 163.694 103.089 165.323 102.562C166.801 102.083 168.132 100.678 168.944 99.3735L162.206 78.6968C154.611 55.3885 129.548 42.6183 106.227 50.1739C82.9057 57.7295 70.1573 82.7497 77.7527 106.058L91.8038 149.178L94.7782 158.305L103.911 155.347L170.099 133.903L179.232 130.944L176.258 121.817L176.154 121.498C175.551 123.201 174.42 124.394 172.627 124.975C170.436 125.684 168.565 125.326 166.902 124.09Z" fill="#65B8FF"/>
</svg>
